<?xml version="1.0" encoding="UTF-8"?>
<svg xmlns:cge="http://iec.ch/TC57/2005/SVG-schema#" xmlns:xlink="http://www.w3.org/1999/xlink" onload="try{initialize(evt);} catch(e){}" xmlns="http://www.w3.org/2000/svg" xmlns:cim="http://iec.ch/TC57/2003/CIM-schema-cim10#" xmlns:DF8003="http://DF8003.com/SVGEX-schema#" viewBox="251 -865 1187 783" xmlns:rdf="http://www.w3.org/1999/02/22-rdf-syntax-ns#" >
 <defs>
  <symbol id="terminal" viewBox="-2 -2 4 4" >
   <circle cx="0" cy="0" stroke="red" r="2" />
  </symbol>
  <symbol id="Breaker:shape0_0" viewBox="1 2 11 34" >
   <use width="4" x="4" xlink:href="#terminal" y="4" terminal_seq="0" height="4" />
   <use width="4" x="4" xlink:href="#terminal" y="30" terminal_seq="1" height="4" />
   <rect width="11" x="1" y="6" height="26" stroke-width="2.625" />
  </symbol>
  <symbol id="Breaker:shape0_1" viewBox="1 2 11 34" >
   <use width="4" x="4" xlink:href="#terminal" y="30" terminal_seq="0" height="4" />
   <rect width="11" x="1" y="6" height="26" />
   <use width="4" x="4" xlink:href="#terminal" y="4" terminal_seq="1" height="4" />
  </symbol>
  <symbol id="Breaker:shape0_2" viewBox="1 2 11 34" >
   <rect width="11" x="1" y="6" height="26" stroke-width="2.625" />
   <line y1="28" stroke-width="1.61111" y2="10" x1="10" x2="3" />
   <line y1="28" stroke-width="1.31519" y2="10" x1="3" x2="10" />
   <line y1="29" stroke-width="1.61111" y2="29" x1="3" x2="3" />
   <use width="4" x="4" xlink:href="#terminal" y="4" terminal_seq="0" height="4" />
   <use width="4" x="4" xlink:href="#terminal" y="30" terminal_seq="1" height="4" />
  </symbol>
  <symbol id="Breaker:shape0_3" viewBox="1 2 11 34" >
   <use width="4" x="4" xlink:href="#terminal" y="30" terminal_seq="0" height="4" />
   <rect width="11" x="1" y="6" height="26" stroke-width="2.625" />
   <line y1="28" stroke-width="1.61111" y2="10" x1="10" x2="3" />
   <line y1="28" stroke-width="1.31519" y2="10" x1="3" x2="10" />
   <line y1="29" stroke-width="1.61111" y2="29" x1="3" x2="3" />
   <use width="4" x="4" xlink:href="#terminal" y="4" terminal_seq="1" height="4" />
  </symbol>
  <symbol id="dynamicPoint:shape28" viewBox="1 1 20 22" >
   <rect width="20" x="1" y="1" fill="rgb(0,255,0)" height="22" />
   <rect width="20" x="1" y="1" fill="none" height="22" stroke="rgb(0,238,0)" stroke-width="1.57143" />
   <line stroke="rgb(0,238,0)" y1="8" stroke-width="2.35714" y2="4" x1="3" x2="7" />
   <line stroke="rgb(0,238,0)" y1="4" stroke-width="2.35714" y2="18" x1="6" x2="20" />
  </symbol>
  <symbol id="dynamicPoint:shape29" viewBox="1 1 21 22" >
   <rect width="20" x="2" y="1" fill="rgb(0,255,0)" height="22" />
   <line stroke="rgb(255,69,0)" y1="3" stroke-width="2.35714" y2="19" x1="2" x2="18" />
   <line stroke="rgb(255,69,0)" y1="19" stroke-width="2.35714" y2="3" x1="4" x2="20" />
   <rect width="20" x="1" y="1" fill="none" height="22" stroke="rgb(255,69,0)" stroke-width="1.57143" />
  </symbol>
  <symbol id="dynamicPoint:shape30" viewBox="1 1 20 22" >
   <rect width="20" x="1" y="1" fill="rgb(0,255,0)" height="22" />
   <rect width="20" x="1" y="1" fill="none" height="22" stroke="rgb(0,238,0)" stroke-width="1.57143" />
   <line stroke="rgb(0,238,0)" y1="8" stroke-width="2.35714" y2="4" x1="3" x2="7" />
   <line stroke="rgb(0,238,0)" y1="4" stroke-width="2.35714" y2="18" x1="6" x2="20" />
  </symbol>
  <symbol id="dynamicPoint:shape31" viewBox="1 1 21 22" >
   <rect width="20" x="2" y="1" fill="rgb(0,255,0)" height="22" />
   <rect width="20" x="1" y="1" fill="none" height="22" stroke="rgb(0,238,0)" stroke-width="1.57143" />
   <line stroke="rgb(0,255,0)" y1="19" stroke-width="2.35714" y2="3" x1="4" x2="20" />
   <line stroke="rgb(0,238,0)" y1="4" stroke-width="2.35714" y2="20" x1="3" x2="19" />
  </symbol>
  <symbol id="lightningRod:shape41" viewBox="0 2 15 42" >
   <line y1="6" stroke-width="1.38337" y2="6" x1="3" x2="12" />
   <polyline fill="none" points="8,17 8,10 " stroke-width="2" />
   <rect width="11" x="2" y="18" height="22" stroke-width="1.34246" />
   <line y1="39" stroke-width="1" y2="39" x1="8" x2="8" />
   <line y1="39" stroke-width="1" y2="32" x1="13" x2="3" />
   <line y1="39" stroke-width="1" y2="32" x1="3" x2="12" />
   <line y1="31" stroke-width="1" y2="31" x1="3" x2="13" />
   <line y1="26" stroke-width="1" y2="26" x1="3" x2="12" />
   <line y1="21" stroke-width="1" y2="21" x1="3" x2="12" />
   <line y1="29" stroke-width="1" y2="29" x1="3" x2="12" />
   <line y1="23" stroke-width="1" y2="23" x1="3" x2="13" />
   <use width="4" x="7" xlink:href="#terminal" y="40" terminal_seq="0" height="4" />
   <line y1="10" stroke-width="1.57897" y2="10" x1="0" x2="15" />
   <line y1="2" stroke-width="1.57896" y2="2" x1="5" x2="10" />
  </symbol>
  <symbol id="load:shape1" viewBox="1 1 16 34" >
   <line y1="29" stroke-width="2" y2="3" x1="9" x2="9" />
   <use width="4" x="5" xlink:href="#terminal" y="25" terminal_seq="0" height="4" />
   <polyline fill="none" points="1,13 9,1 17,13 " stroke-width="2" />
  </symbol>
  <symbol id="voltageTransformer:shape0" viewBox="2 1 48 27" >
   <line y1="10" stroke-width="1.42901" y2="15" x1="20" x2="16" />
   <line y1="14" stroke-width="1.42907" y2="14" x1="16" x2="11" />
   <line y1="20" stroke-width="1.42901" y2="15" x1="20" x2="16" />
   <line y1="9" stroke-width="1.42901" y2="14" x1="41" x2="37" />
   <line y1="14" stroke-width="1.42907" y2="14" x1="37" x2="33" />
   <line y1="19" stroke-width="1.42901" y2="14" x1="41" x2="37" />
   <ellipse cx="36" cy="14" rx="13.5" ry="13" stroke-width="1.42908" />
   <circle cx="18" cy="15" r="13" stroke-width="1.42908" />
   <use width="4" x="4" xlink:href="#terminal" y="14" terminal_seq="0" height="4" />
  </symbol>
  <style type="text/css" ><![CDATA[
.kv0 { stroke:rgb(127,127,127);fill:none}
.BKBV-0KV { stroke:rgb(127,127,127);fill:rgb(127,127,127)}
.kv3 { stroke:rgb(154,205,50);fill:none}
.BKBV-3KV { stroke:rgb(154,205,50);fill:rgb(154,205,50)}
.kv6 { stroke:rgb(139,139,0);fill:none}
.BKBV-6KV { stroke:rgb(139,139,0);fill:rgb(139,139,0)}
.kv10 { stroke:rgb(0,81,151);fill:none}
.BKBV-10KV { stroke:rgb(0,81,151);fill:rgb(0,81,151)}
.kv15 { stroke:rgb(0,255,0);fill:none}
.BKBV-15KV { stroke:rgb(0,255,0);fill:rgb(0,255,0)}
.kv20 { stroke:rgb(0,255,0);fill:none}
.BKBV-20KV { stroke:rgb(0,255,0);fill:rgb(0,255,0)}
.kv35 { stroke:rgb(255,245,0);fill:none}
.BKBV-35KV { stroke:rgb(255,245,0);fill:rgb(255,245,0)}
.kv66 { stroke:rgb(255,255,0);fill:none}
.BKBV-66KV { stroke:rgb(255,255,0);fill:rgb(255,255,0)}
.kv110 { stroke:rgb(218,37,29);fill:none}
.BKBV-110KV { stroke:rgb(218,37,29);fill:rgb(218,37,29)}
.kv220 { stroke:rgb(255,255,255);fill:none}
.BKBV-220KV { stroke:rgb(255,255,255);fill:rgb(255,255,255)}
.kv330 { stroke:rgb(160,32,240);fill:none}
.BKBV-330KV { stroke:rgb(160,32,240);fill:rgb(160,32,240)}
.kv500 { stroke:rgb(111,39,41);fill:none}
.BKBV-500KV { stroke:rgb(111,39,41);fill:rgb(111,39,41)}
.kv750 { stroke:rgb(255,0,0);fill:none}
.BKBV-750KV { stroke:rgb(255,0,0);fill:rgb(255,0,0)}
.kv22 { stroke:rgb(255,255,255);fill:none}
.BKBV-22KV { stroke:rgb(255,255,255);fill:rgb(255,255,255)}
.kv38 { stroke:rgb(255,255,255);fill:none}
.BKBV-38KV { stroke:rgb(255,255,255);fill:rgb(255,255,255)}
.nopower {stroke:grey;fill:none}
.choice {stroke:rgb(255,0,0);fill:none}
.bknopower {stroke:grey;fill:grey}
.bkchoice {stroke:rgb(255,0,0);fill:rgb(255,0,0)}
.busnopower {stroke:grey;fill:grey}
.buschoice {stroke:rgb(255,0,0);fill:rgb(255,0,0)}]]></style>
 </defs>
 <script xlink:href="xl.js" language="JavaScript" />
 <g id="Head_Layer" >
  <rect width="1197" x="246" y="-870" fill="rgb(0,0,0)" height="793" />
 </g>
 <g id="Bus_Layer" >
  <g class="kv10" id="31704" >
   <polyline class="kv10" fill="none" points="252,-436 1328,-436 " stroke-width="8" />
   <metadata>
    <cge:PSR_Ref ObjectID="DE:gflds.SR_gflds_9I" ObjectName="BS-DE:gflds.SR_gflds_9I" />
   </metadata>
  </g>
 </g>
 <g id="Load_Layer" >
  <g>
   <use width="16" x="1" y="1" xlink:href="#load:shape1" class="kv10" height="34" transform="matrix(1.000000 -0.000000 0.000000 -1.000000 1008.666667 -211.000000)" />
   <metadata>
    <cge:PSR_Ref ObjectID="0" ObjectName="0" />
   </metadata>
  </g>
  <g>
   <use width="16" x="1" y="1" xlink:href="#load:shape1" class="kv10" height="34" transform="matrix(1.000000 -0.000000 0.000000 -1.000000 890.833333 -215.000000)" />
   <metadata>
    <cge:PSR_Ref ObjectID="0" ObjectName="0" />
   </metadata>
  </g>
  <g>
   <use width="16" x="1" y="1" xlink:href="#load:shape1" class="kv10" height="34" transform="matrix(1.000000 -0.000000 0.000000 -1.000000 754.000000 -215.000000)" />
   <metadata>
    <cge:PSR_Ref ObjectID="0" ObjectName="0" />
   </metadata>
  </g>
  <g>
   <use width="16" x="1" y="1" xlink:href="#load:shape1" class="kv10" height="34" transform="matrix(1.000000 -0.000000 0.000000 -1.000000 617.166667 -218.000000)" />
   <metadata>
    <cge:PSR_Ref ObjectID="0" ObjectName="0" />
   </metadata>
  </g>
  <g>
   <use width="16" x="1" y="1" xlink:href="#load:shape1" class="kv10" height="34" transform="matrix(1.000000 -0.000000 0.000000 -1.000000 493.333333 -215.000000)" />
   <metadata>
    <cge:PSR_Ref ObjectID="0" ObjectName="0" />
   </metadata>
  </g>
 </g>
 <g id="ACLine_Layer" >
  <g class="kv10" id="31775" >
   <polyline class="kv10" fill="none" points="764,-574 764,-797 " stroke-width="2" />
   <metadata>
    <cge:PSR_Ref ObjectID="10kV.10kVspx" ObjectName="AC-10kV.10kVspx" />
   </metadata>
  </g>
 </g>
 <g id="Breaker_Layer" >
  <g id="31670" >
   <use width="11" x="1" y="2" xlink:href="#Breaker:shape0_0" class="kv10" height="34" transform="matrix(0.933333 -0.000000 0.000000 -0.805556 757.933333 -548.194444)" />
   <metadata>
    <cge:PSR_Ref ObjectID="DE:gflds.SR_gflds_911BK" ObjectName="DE:gflds.SR_gflds_911BK" />
    <cge:Meas_Ref ObjectID="ME-180435" />
   </metadata>
  </g>
  <g id="31685" >
   <use width="11" x="1" y="2" xlink:href="#Breaker:shape0_0" class="kv10" height="34" transform="matrix(0.933333 -0.000000 0.000000 -0.805556 1011.037500 -340.194444)" />
   <metadata>
    <cge:PSR_Ref ObjectID="DE:gflds.SR_gflds_924BK" ObjectName="DE:gflds.SR_gflds_924BK" />
    <cge:Meas_Ref ObjectID="ME-180545" />
   </metadata>
  </g>
  <g id="31682" >
   <use width="11" x="1" y="2" xlink:href="#Breaker:shape0_0" class="kv10" height="34" transform="matrix(0.933333 -0.000000 0.000000 -0.805556 893.204167 -342.194444)" />
   <metadata>
    <cge:PSR_Ref ObjectID="DE:gflds.SR_gflds_922BK" ObjectName="DE:gflds.SR_gflds_922BK" />
    <cge:Meas_Ref ObjectID="ME-180523" />
   </metadata>
  </g>
  <g id="31673" >
   <use width="11" x="1" y="2" xlink:href="#Breaker:shape0_0" class="kv10" height="34" transform="matrix(0.933333 -0.000000 0.000000 -0.805556 757.370833 -342.194444)" />
   <metadata>
    <cge:PSR_Ref ObjectID="DE:gflds.SR_gflds_912BK" ObjectName="DE:gflds.SR_gflds_912BK" />
    <cge:Meas_Ref ObjectID="ME-180457" />
   </metadata>
  </g>
  <g id="31676" >
   <use width="11" x="1" y="2" xlink:href="#Breaker:shape0_0" class="kv10" height="34" transform="matrix(0.933333 -0.000000 0.000000 -0.805556 620.537500 -342.194444)" />
   <metadata>
    <cge:PSR_Ref ObjectID="DE:gflds.SR_gflds_913BK" ObjectName="DE:gflds.SR_gflds_913BK" />
    <cge:Meas_Ref ObjectID="ME-180479" />
   </metadata>
  </g>
  <g id="31679" >
   <use width="11" x="1" y="2" xlink:href="#Breaker:shape0_0" class="kv10" height="34" transform="matrix(0.933333 -0.000000 0.000000 -0.805556 495.704167 -341.194444)" />
   <metadata>
    <cge:PSR_Ref ObjectID="DE:gflds.SR_gflds_914BK" ObjectName="DE:gflds.SR_gflds_914BK" />
    <cge:Meas_Ref ObjectID="ME-180501" />
   </metadata>
  </g>
 </g>
 <g id="Disconnector_Layer" />
 <g id="Transformer2_Layer" />
 <g id="Transformer3_Layer" />
 <g id="Generator_Layer" />
 <g id="Compensator_Layer" />
 <g id="Reactor_Layer" />
 <g id="PT_Layer" >
  <g id="afbe5b8" >
   <use width="48" x="2" y="1" xlink:href="#voltageTransformer:shape0" class="kv10" height="27" transform="matrix(-0.000000 1.000000 1.000000 0.000000 1239.500000 -372.500000)" />
   <metadata>
    <cge:PSR_Ref ObjectID="0" ObjectName="0" />
   </metadata>
  </g>
 </g>
 <g id="CT_Layer" />
 <g id="Link_Layer" >
  <g class="kv10" id="afc1ce8" >
   <polyline class="kv10" fill="none" points="764,-667 639,-667 639,-647 " stroke-width="2" />
   <metadata>
    <cge:PSR_Link Pin1InfoVect0LinkObjId="a8952f0_0" Pin0InfoVect0LinkObjId="31775_0" MaxPinNum="2" />
   </metadata>
  </g>
  <g class="kv10" id="a202680" >
   <polyline class="kv10" fill="none" points="764,-553 764,-436 " stroke-width="2" />
   <metadata>
    <cge:PSR_Link Pin1InfoVect0LinkObjId="31704_0" Pin0InfoVect0LinkObjId="31670_0" MaxPinNum="2" />
   </metadata>
  </g>
  <g class="kv10" id="a894e00" >
   <polyline class="kv10" fill="none" points="1017,-366 1017,-436 " stroke-width="2" />
   <metadata>
    <cge:PSR_Link Pin1InfoVect0LinkObjId="31704_0" Pin0InfoVect0LinkObjId="31685_1" MaxPinNum="2" />
   </metadata>
  </g>
  <g class="kv10" id="b0fd4d8" >
   <polyline class="kv10" fill="none" points="1017,-240 1017,-345 " stroke-width="2" />
   <metadata>
    <cge:PSR_Link Pin1InfoVect0LinkObjId="31685_0" Pin0InfoVect0LinkObjId="0_0" MaxPinNum="2" />
   </metadata>
  </g>
  <g class="kv10" id="aa7b620" >
   <polyline class="kv10" fill="none" points="899,-368 899,-436 " stroke-width="2" />
   <metadata>
    <cge:PSR_Link Pin1InfoVect0LinkObjId="31704_0" Pin0InfoVect0LinkObjId="31682_1" MaxPinNum="2" />
   </metadata>
  </g>
  <g class="kv10" id="a23a7d0" >
   <polyline class="kv10" fill="none" points="899,-244 899,-347 " stroke-width="2" />
   <metadata>
    <cge:PSR_Link Pin1InfoVect0LinkObjId="31682_0" Pin0InfoVect0LinkObjId="0_0" MaxPinNum="2" />
   </metadata>
  </g>
  <g class="kv10" id="a1dd580" >
   <polyline class="kv10" fill="none" points="763,-368 763,-436 " stroke-width="2" />
   <metadata>
    <cge:PSR_Link Pin1InfoVect0LinkObjId="31704_0" Pin0InfoVect0LinkObjId="31673_1" MaxPinNum="2" />
   </metadata>
  </g>
  <g class="kv10" id="a02e0d0" >
   <polyline class="kv10" fill="none" points="763,-244 763,-347 " stroke-width="2" />
   <metadata>
    <cge:PSR_Link Pin1InfoVect0LinkObjId="31673_0" Pin0InfoVect0LinkObjId="0_0" MaxPinNum="2" />
   </metadata>
  </g>
  <g class="kv10" id="ab51038" >
   <polyline class="kv10" fill="none" points="626,-368 626,-436 " stroke-width="2" />
   <metadata>
    <cge:PSR_Link Pin1InfoVect0LinkObjId="31704_0" Pin0InfoVect0LinkObjId="31676_1" MaxPinNum="2" />
   </metadata>
  </g>
  <g class="kv10" id="a7e4828" >
   <polyline class="kv10" fill="none" points="626,-247 626,-347 " stroke-width="2" />
   <metadata>
    <cge:PSR_Link Pin1InfoVect0LinkObjId="31676_0" Pin0InfoVect0LinkObjId="0_0" MaxPinNum="2" />
   </metadata>
  </g>
  <g class="kv10" id="a6a3ca8" >
   <polyline class="kv10" fill="none" points="502,-367 502,-436 " stroke-width="2" />
   <metadata>
    <cge:PSR_Link Pin1InfoVect0LinkObjId="31704_0" Pin0InfoVect0LinkObjId="31679_1" MaxPinNum="2" />
   </metadata>
  </g>
  <g class="kv10" id="a23a9b0" >
   <polyline class="kv10" fill="none" points="1254,-367 1254,-436 " stroke-width="2" />
   <metadata>
    <cge:PSR_Link Pin1InfoVect0LinkObjId="31704_0" Pin0InfoVect0LinkObjId="afbe5b8_0" MaxPinNum="2" />
   </metadata>
  </g>
  <g class="kv10" id="a10bde8" >
   <polyline class="kv10" fill="none" points="502,-288 502,-280 501,-280 501,-288 " stroke-width="2" />
   <metadata>
    <cge:PSR_Link Pin0InfoVect1LinkObjId="af565c8_0" Pin0InfoVect0LinkObjId="a40d868_1" MaxPinNum="1" />
   </metadata>
  </g>
  <g class="kv10" id="a40d868" >
   <polyline class="kv10" fill="none" points="501,-244 501,-288 " stroke-width="2" />
   <metadata>
    <cge:PSR_Link Pin1InfoVect1LinkObjId="af565c8_0" Pin1InfoVect0LinkObjId="a10bde8_0" Pin0InfoVect0LinkObjId="0_0" MaxPinNum="2" />
   </metadata>
  </g>
  <g class="kv10" id="af565c8" >
   <polyline class="kv10" fill="none" points="501,-288 501,-346 " stroke-width="2" />
   <metadata>
    <cge:PSR_Link Pin1InfoVect0LinkObjId="31679_0" Pin0InfoVect1LinkObjId="a40d868_1" Pin0InfoVect0LinkObjId="a10bde8_0" MaxPinNum="2" />
   </metadata>
  </g>
 </g>
 <g id="MeasurementValue_Layer" >
  <g prefix="P  " appendix="" decimal="1" PreSymbol="0" id="ME-180627" >
   <text x="733" y="-847" fill="rgb(0,255,0)" font-size="18" >P   0.00</text>
   <metadata>
    <cge:Meas_Ref ObjectID="180627" ObjectName="NULL:NULL" />
   </metadata>
  </g>
  <g prefix="Q " appendix="" decimal="1" PreSymbol="0" id="ME-180628" >
   <text x="733" y="-829" fill="rgb(255,0,0)" font-size="18" >Q  0.00</text>
   <metadata>
    <cge:Meas_Ref ObjectID="180628" ObjectName="NULL:NULL" />
   </metadata>
  </g>
  <g prefix="Ia  " appendix="" decimal="1" PreSymbol="0" id="ME-180624" >
   <text x="733" y="-811" fill="rgb(255,255,0)" font-size="18" >Ia   0.00</text>
   <metadata>
    <cge:Meas_Ref ObjectID="180624" ObjectName="NULL:NULL" />
   </metadata>
  </g>
  <g prefix="" appendix="" decimal="1" PreSymbol="0" id="ME-180663" >
   <text x="996" y="-118" fill="rgb(0,255,0)" font-size="18" >0.00</text>
   <metadata>
    <cge:Meas_Ref ObjectID="180663" ObjectName="NULL:NULL" />
   </metadata>
  </g>
  <g prefix="" appendix="" decimal="1" PreSymbol="0" id="ME-180664" >
   <text x="996" y="-100" fill="rgb(255,0,0)" font-size="18" >0.00</text>
   <metadata>
    <cge:Meas_Ref ObjectID="180664" ObjectName="NULL:NULL" />
   </metadata>
  </g>
  <g prefix="" appendix="" decimal="1" PreSymbol="0" id="ME-180660" >
   <text x="996" y="-82" fill="rgb(255,255,0)" font-size="18" >0.00</text>
   <metadata>
    <cge:Meas_Ref ObjectID="180660" ObjectName="NULL:NULL" />
   </metadata>
  </g>
  <g prefix="" appendix="" decimal="1" PreSymbol="0" id="ME-180657" >
   <text x="878" y="-120" fill="rgb(0,255,0)" font-size="18" >0.00</text>
   <metadata>
    <cge:Meas_Ref ObjectID="180657" ObjectName="NULL:NULL" />
   </metadata>
  </g>
  <g prefix="" appendix="" decimal="1" PreSymbol="0" id="ME-180658" >
   <text x="878" y="-102" fill="rgb(255,0,0)" font-size="18" >0.00</text>
   <metadata>
    <cge:Meas_Ref ObjectID="180658" ObjectName="NULL:NULL" />
   </metadata>
  </g>
  <g prefix="" appendix="" decimal="1" PreSymbol="0" id="ME-180654" >
   <text x="878" y="-84" fill="rgb(255,255,0)" font-size="18" >0.00</text>
   <metadata>
    <cge:Meas_Ref ObjectID="180654" ObjectName="NULL:NULL" />
   </metadata>
  </g>
  <g prefix="" appendix="" decimal="1" PreSymbol="0" id="ME-180633" >
   <text x="743" y="-120" fill="rgb(0,255,0)" font-size="18" >0.00</text>
   <metadata>
    <cge:Meas_Ref ObjectID="180633" ObjectName="NULL:NULL" />
   </metadata>
  </g>
  <g prefix="" appendix="" decimal="1" PreSymbol="0" id="ME-180634" >
   <text x="743" y="-102" fill="rgb(255,0,0)" font-size="18" >0.00</text>
   <metadata>
    <cge:Meas_Ref ObjectID="180634" ObjectName="NULL:NULL" />
   </metadata>
  </g>
  <g prefix="" appendix="" decimal="1" PreSymbol="0" id="ME-180630" >
   <text x="743" y="-84" fill="rgb(255,255,0)" font-size="18" >0.00</text>
   <metadata>
    <cge:Meas_Ref ObjectID="180630" ObjectName="NULL:NULL" />
   </metadata>
  </g>
  <g prefix="" appendix="" decimal="1" PreSymbol="0" id="ME-180639" >
   <text x="605" y="-120" fill="rgb(0,255,0)" font-size="18" >0.00</text>
   <metadata>
    <cge:Meas_Ref ObjectID="180639" ObjectName="NULL:NULL" />
   </metadata>
  </g>
  <g prefix="" appendix="" decimal="1" PreSymbol="0" id="ME-180640" >
   <text x="605" y="-102" fill="rgb(255,0,0)" font-size="18" >0.00</text>
   <metadata>
    <cge:Meas_Ref ObjectID="180640" ObjectName="NULL:NULL" />
   </metadata>
  </g>
  <g prefix="" appendix="" decimal="1" PreSymbol="0" id="ME-180636" >
   <text x="605" y="-84" fill="rgb(255,255,0)" font-size="18" >0.00</text>
   <metadata>
    <cge:Meas_Ref ObjectID="180636" ObjectName="NULL:NULL" />
   </metadata>
  </g>
  <g prefix="" appendix="" decimal="1" PreSymbol="0" id="ME-180645" >
   <text x="481" y="-119" fill="rgb(0,255,0)" font-size="18" >0.00</text>
   <metadata>
    <cge:Meas_Ref ObjectID="180645" ObjectName="NULL:NULL" />
   </metadata>
  </g>
  <g prefix="" appendix="" decimal="1" PreSymbol="0" id="ME-180646" >
   <text x="481" y="-101" fill="rgb(255,0,0)" font-size="18" >0.00</text>
   <metadata>
    <cge:Meas_Ref ObjectID="180646" ObjectName="NULL:NULL" />
   </metadata>
  </g>
  <g prefix="" appendix="" decimal="1" PreSymbol="0" id="ME-180642" >
   <text x="481" y="-83" fill="rgb(255,255,0)" font-size="18" >0.00</text>
   <metadata>
    <cge:Meas_Ref ObjectID="180642" ObjectName="NULL:NULL" />
   </metadata>
  </g>
  <g prefix="Ua  " appendix="" decimal="1" PreSymbol="0" id="ME-180683" >
   <text x="280" y="-496" fill="rgb(255,255,255)" font-size="18" >Ua   0.00</text>
   <metadata>
    <cge:Meas_Ref ObjectID="180683" ObjectName="NULL:NULL" />
   </metadata>
  </g>
  <g prefix="Ub " appendix="" decimal="1" PreSymbol="0" id="ME-180684" >
   <text x="280" y="-478" fill="rgb(255,255,255)" font-size="18" >Ub  0.00</text>
   <metadata>
    <cge:Meas_Ref ObjectID="180684" ObjectName="NULL:NULL" />
   </metadata>
  </g>
  <g prefix="Uc " appendix="" decimal="1" PreSymbol="0" id="ME-180685" >
   <text x="280" y="-460" fill="rgb(255,255,255)" font-size="18" >Uc  0.00</text>
   <metadata>
    <cge:Meas_Ref ObjectID="180685" ObjectName="NULL:NULL" />
   </metadata>
  </g>
  <g prefix="Uab " appendix="" decimal="1" PreSymbol="0" id="ME-180686" >
   <text x="280" y="-442" fill="rgb(255,255,255)" font-size="18" >Uab  0.00</text>
   <metadata>
    <cge:Meas_Ref ObjectID="180686" ObjectName="NULL:NULL" />
   </metadata>
  </g>
 </g>
 <g id="Text_Layer" >
  <text fill="rgb(255,250,250)" transform="matrix(1.000000 0.000000 0.000000 1.000000 256.000000 -425.000000) translate(0,13)" font-family="SimSun" font-size="16" >10kVI母线</text>
  <text fill="rgb(255,250,250)" transform="matrix(1.000000 0.000000 0.000000 1.000000 1328.000000 -801.000000) translate(0,15)" font-family="SimSun" font-size="18" >信号总复归</text>
  <text fill="rgb(255,250,250)" transform="matrix(1.000000 0.000000 0.000000 1.000000 1301.000000 -761.000000) translate(0,15)" font-family="SimSun" font-size="18" >公共信号系统</text>
  <text fill="rgb(255,250,250)" transform="matrix(1.000000 0.000000 0.000000 1.000000 1304.000000 -531.000000) translate(0,15)" font-family="SimSun" font-size="18" >0793-2618164</text>
  <text fill="rgb(255,250,250)" transform="matrix(1.000000 0.000000 0.000000 1.000000 732.000000 -800.000000) translate(0,15)" font-family="SimSun" font-size="18" >六</text>
  <text fill="rgb(255,250,250)" transform="matrix(1.000000 0.000000 0.000000 1.000000 732.000000 -800.000000) translate(0,33)" font-family="SimSun" font-size="18" >都</text>
  <text fill="rgb(255,250,250)" transform="matrix(1.000000 0.000000 0.000000 1.000000 732.000000 -800.000000) translate(0,51)" font-family="SimSun" font-size="18" >开</text>
  <text fill="rgb(255,250,250)" transform="matrix(1.000000 0.000000 0.000000 1.000000 732.000000 -800.000000) translate(0,69)" font-family="SimSun" font-size="18" >闭</text>
  <text fill="rgb(255,250,250)" transform="matrix(1.000000 0.000000 0.000000 1.000000 732.000000 -800.000000) translate(0,87)" font-family="SimSun" font-size="18" >所</text>
  <text fill="rgb(255,250,250)" transform="matrix(1.000000 0.000000 0.000000 1.000000 732.000000 -800.000000) translate(0,105)" font-family="SimSun" font-size="18" >线</text>
  <text fill="rgb(255,250,250)" transform="matrix(1.000000 0.000000 0.000000 1.000000 1333.000000 -693.000000) translate(0,18)" font-family="SimHei" font-size="22" >六</text>
  <text fill="rgb(255,250,250)" transform="matrix(1.000000 0.000000 0.000000 1.000000 1333.000000 -693.000000) translate(0,40)" font-family="SimHei" font-size="22" >都</text>
  <text fill="rgb(255,250,250)" transform="matrix(1.000000 0.000000 0.000000 1.000000 1333.000000 -693.000000) translate(0,62)" font-family="SimHei" font-size="22" >开</text>
  <text fill="rgb(255,250,250)" transform="matrix(1.000000 0.000000 0.000000 1.000000 1333.000000 -693.000000) translate(0,84)" font-family="SimHei" font-size="22" >闭</text>
  <text fill="rgb(255,250,250)" transform="matrix(1.000000 0.000000 0.000000 1.000000 1333.000000 -693.000000) translate(0,106)" font-family="SimHei" font-size="22" >所</text>
  <text fill="rgb(255,250,250)" transform="matrix(1.000000 0.000000 0.000000 1.000000 1357.000000 -681.000000) translate(0,18)" font-family="SimHei" font-size="22" >广</text>
  <text fill="rgb(255,250,250)" transform="matrix(1.000000 0.000000 0.000000 1.000000 1357.000000 -681.000000) translate(0,40)" font-family="SimHei" font-size="22" > </text>
  <text fill="rgb(255,250,250)" transform="matrix(1.000000 0.000000 0.000000 1.000000 1357.000000 -681.000000) translate(0,62)" font-family="SimHei" font-size="22" > </text>
  <text fill="rgb(255,250,250)" transform="matrix(1.000000 0.000000 0.000000 1.000000 1357.000000 -681.000000) translate(0,84)" font-family="SimHei" font-size="22" >丰</text>
  <text fill="rgb(255,250,250)" transform="matrix(1.000000 0.000000 0.000000 1.000000 1039.166667 -221.000000) translate(0,15)" font-family="SimSun" font-size="18" >六</text>
  <text fill="rgb(255,250,250)" transform="matrix(1.000000 0.000000 0.000000 1.000000 1039.166667 -221.000000) translate(0,33)" font-family="SimSun" font-size="18" >都</text>
  <text fill="rgb(255,250,250)" transform="matrix(1.000000 0.000000 0.000000 1.000000 1039.166667 -221.000000) translate(0,51)" font-family="SimSun" font-size="18" >线</text>
  <text fill="rgb(255,250,250)" transform="matrix(1.000000 0.000000 0.000000 1.000000 922.333333 -223.000000) translate(0,15)" font-family="SimSun" font-size="18" >五</text>
  <text fill="rgb(255,250,250)" transform="matrix(1.000000 0.000000 0.000000 1.000000 922.333333 -223.000000) translate(0,33)" font-family="SimSun" font-size="18" >甲</text>
  <text fill="rgb(255,250,250)" transform="matrix(1.000000 0.000000 0.000000 1.000000 922.333333 -223.000000) translate(0,51)" font-family="SimSun" font-size="18" >线</text>
  <text fill="rgb(255,250,250)" transform="matrix(1.000000 0.000000 0.000000 1.000000 784.500000 -223.000000) translate(0,15)" font-family="SimSun" font-size="18" >杉</text>
  <text fill="rgb(255,250,250)" transform="matrix(1.000000 0.000000 0.000000 1.000000 784.500000 -223.000000) translate(0,33)" font-family="SimSun" font-size="18" >溪</text>
  <text fill="rgb(255,250,250)" transform="matrix(1.000000 0.000000 0.000000 1.000000 784.500000 -223.000000) translate(0,51)" font-family="SimSun" font-size="18" >线</text>
  <text fill="rgb(255,250,250)" transform="matrix(1.000000 0.000000 0.000000 1.000000 645.666667 -265.000000) translate(0,15)" font-family="SimSun" font-size="18" >五</text>
  <text fill="rgb(255,250,250)" transform="matrix(1.000000 0.000000 0.000000 1.000000 645.666667 -265.000000) translate(0,33)" font-family="SimSun" font-size="18" >峰</text>
  <text fill="rgb(255,250,250)" transform="matrix(1.000000 0.000000 0.000000 1.000000 645.666667 -265.000000) translate(0,51)" font-family="SimSun" font-size="18" >山</text>
  <text fill="rgb(255,250,250)" transform="matrix(1.000000 0.000000 0.000000 1.000000 645.666667 -265.000000) translate(0,69)" font-family="SimSun" font-size="18" >水</text>
  <text fill="rgb(255,250,250)" transform="matrix(1.000000 0.000000 0.000000 1.000000 645.666667 -265.000000) translate(0,87)" font-family="SimSun" font-size="18" >泥</text>
  <text fill="rgb(255,250,250)" transform="matrix(1.000000 0.000000 0.000000 1.000000 645.666667 -265.000000) translate(0,105)" font-family="SimSun" font-size="18" >厂</text>
  <text fill="rgb(255,250,250)" transform="matrix(1.000000 0.000000 0.000000 1.000000 645.666667 -265.000000) translate(0,123)" font-family="SimSun" font-size="18" >线</text>
  <text fill="rgb(255,250,250)" transform="matrix(1.000000 0.000000 0.000000 1.000000 523.833333 -258.000000) translate(0,15)" font-family="SimSun" font-size="18" >六</text>
  <text fill="rgb(255,250,250)" transform="matrix(1.000000 0.000000 0.000000 1.000000 523.833333 -258.000000) translate(0,33)" font-family="SimSun" font-size="18" >都</text>
  <text fill="rgb(255,250,250)" transform="matrix(1.000000 0.000000 0.000000 1.000000 523.833333 -258.000000) translate(0,51)" font-family="SimSun" font-size="18" >电</text>
  <text fill="rgb(255,250,250)" transform="matrix(1.000000 0.000000 0.000000 1.000000 523.833333 -258.000000) translate(0,69)" font-family="SimSun" font-size="18" >站</text>
  <text fill="rgb(255,250,250)" transform="matrix(1.000000 0.000000 0.000000 1.000000 523.833333 -258.000000) translate(0,87)" font-family="SimSun" font-size="18" >线</text>
  <text fill="rgb(255,250,250)" transform="matrix(1.000000 0.000000 0.000000 1.000000 1278.000000 -389.000000) translate(0,15)" font-family="SimSun" font-size="18" >电</text>
  <text fill="rgb(255,250,250)" transform="matrix(1.000000 0.000000 0.000000 1.000000 1278.000000 -389.000000) translate(0,33)" font-family="SimSun" font-size="18" >压</text>
  <text fill="rgb(255,250,250)" transform="matrix(1.000000 0.000000 0.000000 1.000000 1278.000000 -389.000000) translate(0,51)" font-family="SimSun" font-size="18" >互</text>
  <text fill="rgb(255,250,250)" transform="matrix(1.000000 0.000000 0.000000 1.000000 1278.000000 -389.000000) translate(0,69)" font-family="SimSun" font-size="18" >感</text>
  <text fill="rgb(255,250,250)" transform="matrix(1.000000 0.000000 0.000000 1.000000 1278.000000 -389.000000) translate(0,87)" font-family="SimSun" font-size="18" >器</text>
  <text fill="rgb(255,250,250)" transform="matrix(1.000000 0.000000 0.000000 1.000000 710.000000 -775.000000) translate(0,15)" font-family="SimSun" font-size="18" >五</text>
  <text fill="rgb(255,250,250)" transform="matrix(1.000000 0.000000 0.000000 1.000000 710.000000 -775.000000) translate(0,33)" font-family="SimSun" font-size="18" >都</text>
  <text fill="rgb(255,250,250)" transform="matrix(1.000000 0.000000 0.000000 1.000000 710.000000 -775.000000) translate(0,51)" font-family="SimSun" font-size="18" >变</text>
  <text fill="rgb(255,250,250)" transform="matrix(1.000000 0.000000 0.000000 1.000000 783.000000 -573.000000) translate(0,15)" font-family="SimSun" font-size="18" >911</text>
  <text fill="rgb(255,250,250)" transform="matrix(1.000000 0.000000 0.000000 1.000000 516.000000 -366.000000) translate(0,15)" font-family="SimSun" font-size="18" >914</text>
  <text fill="rgb(255,250,250)" transform="matrix(1.000000 0.000000 0.000000 1.000000 640.000000 -366.000000) translate(0,15)" font-family="SimSun" font-size="18" >913</text>
  <text fill="rgb(255,250,250)" transform="matrix(1.000000 0.000000 0.000000 1.000000 777.000000 -367.000000) translate(0,15)" font-family="SimSun" font-size="18" >912</text>
  <text fill="rgb(255,250,250)" transform="matrix(1.000000 0.000000 0.000000 1.000000 916.000000 -367.000000) translate(0,15)" font-family="SimSun" font-size="18" >922</text>
  <text fill="rgb(255,250,250)" transform="matrix(1.000000 0.000000 0.000000 1.000000 1034.000000 -366.000000) translate(0,15)" font-family="SimSun" font-size="18" >924</text>
 </g>
 <g id="Other_Layer" >
  <g id="Image_Layer" >
   <image width="56" x="1328" xlink:href="srgw3.png" y="-720" height="177" />
  </g>
  <g id="LightningRod_Layer" >
   <g id="a8952f0" >
    <use width="15" x="0" y="2" xlink:href="#lightningRod:shape41" class="kv10" height="42" transform="matrix(1.000000 -0.000000 0.000000 -0.941176 632.000000 -608.352941)" />
    <metadata>
     <cge:PSR_Ref ObjectID="0" ObjectName="0" />
    </metadata>
   </g>
  </g>
  <g id="ConnectNode_Layer" />
  <g id="DynamicPoint_Layer" >
   <g id="0" >
    <use width="20" x="1" y="1" xlink:href="#dynamicPoint:shape28" height="22" transform="matrix(1.000000 -0.000000 0.000000 -1.000000 1296.000000 -783.000000)" />
    <metadata>
     <cge:Meas_Ref ObjectID="ME-180615" />
    </metadata>
   </g>
  </g>
 </g>
 <g id="Ref_Layer" >
  <a xlink:href="广丰一次接线图.svg" >
   <rect width="61" x="1325" y="-724" height="187" style="fill-opacity:0" />
  </a>
  <a xlink:href="广丰六都开闭所广丰六都开闭所六都开闭所线911开关间隔接线图_0.svg" >
   <rect width="30" x="780" y="-574" height="18" style="fill-opacity:0" />
  </a>
  <a xlink:href="广丰六都开闭所广丰六都开闭所六都电站线914开关间隔接线图_0.svg" >
   <rect width="30" x="514" y="-366" height="18" style="fill-opacity:0" />
  </a>
  <a xlink:href="广丰六都开闭所广丰六都开闭所五峰山水泥厂线913开关间隔接线图_0.svg" >
   <rect width="30" x="639" y="-367" height="18" style="fill-opacity:0" />
  </a>
  <a xlink:href="广丰六都开闭所广丰六都开闭所杉溪线912开关间隔接线图_0.svg" >
   <rect width="31" x="776" y="-368" height="18" style="fill-opacity:0" />
  </a>
  <a xlink:href="广丰六都开闭所广丰六都开闭所五甲线922开关间隔接线图_0.svg" >
   <rect width="32" x="914" y="-367" height="18" style="fill-opacity:0" />
  </a>
  <a xlink:href="广丰六都开闭所广丰六都开闭所六都线924开关间隔接线图_0.svg" >
   <rect width="31" x="1031" y="-366" height="18" style="fill-opacity:0" />
  </a>
  <a xlink:href="广丰六都开闭所SR_gflds_GG虚开关间隔接线图_0.svg" >
   <rect width="170" x="1267" y="-772" height="34" style="fill-opacity:0" />
  </a>
 </g>
</svg>
